<svg xmlns="http://www.w3.org/2000/svg" xmlns:xlink="http://www.w3.org/1999/xlink" viewBox="0,0,256,256" width="48px" height="48px" fill-rule="nonzero"><g fill="#fafafa" fill-rule="nonzero" stroke="none" stroke-width="1" stroke-linecap="butt" stroke-linejoin="miter" stroke-miterlimit="10" stroke-dasharray="" stroke-dashoffset="0" font-family="none" font-weight="none" font-size="none" text-anchor="none" style="mix-blend-mode: normal"><g transform="scale(10.66667,10.66667)"><path d="M3.125,1c-0.906,0 -1.62194,0.4805 -1.96094,1.3125c-0.107,0.257 -0.16111,0.52955 -0.16211,0.81055c-0.001,0.931 0.59898,1.68667 0.95898,2.13867c0.063,0.079 0.11969,0.14938 0.17969,0.23438l0.16211,0.21484c0.161,0.211 0.34434,0.45031 0.40234,0.57031c0.019,0.055 0.04412,0.15144 0.07813,0.27344c0.157,0.565 0.45002,1.61506 0.91602,2.41406c0.188,0.322 0.45258,0.72672 0.64258,1.01172c-0.127,0.636 -0.3418,1.80753 -0.3418,2.51953c0,1.25 0.25922,2.25388 0.82422,3.17188c0.209,0.328 0.84678,1.32813 1.92578,1.32813c0.383,0 1.01941,-0.14961 1.19141,-1.09961c0.765,0.987 2.05859,2.22461 4.05859,3.09961c0,0 -3.7492,-4.37456 -4.4082,-7.10156c0,0 -0.71717,0.72694 -1.32617,2.21094c-0.182,-0.458 -0.26562,-0.97438 -0.26562,-1.60937c0,-0.627 0.27581,-2.02862 0.38281,-2.51562l0.09375,-0.42383l-0.24609,-0.35742c-0.004,-0.007 -0.50773,-0.73423 -0.80273,-1.24023c-0.336,-0.576 -0.5838,-1.46731 -0.7168,-1.94531c-0.065,-0.233 -0.11606,-0.40163 -0.16406,-0.51562c-0.175,-0.379 -0.43125,-0.71186 -0.65625,-1.00586l-0.125,-0.16602c-0.063,-0.091 -0.14623,-0.19645 -0.24023,-0.31445c-0.183,-0.23 -0.52367,-0.65859 -0.51367,-0.93359l0.11133,-0.07812l0.00195,-0.00391c0.795,0 1.81908,0.56434 2.20508,0.77734c0.126,0.069 0.21858,0.11667 0.26758,0.13867l0.17383,0.07617l0.3418,0.01172c0.447,0.01 1.80563,0.04178 2.76562,0.42578c1.751,0.7 2.71912,1.40069 3.70312,2.67969c2.324,3.022 3.18145,6.93561 3.18945,6.97461l0.125,0.56445l0.54688,0.17773c0.019,0.007 1.54956,0.51847 2.97656,1.85547c-1.795,0.444 -2.41992,1.31836 -2.41992,1.31836c0,0 0.476,0.928 2.75,2.375c1.375,0.875 2.125,1.5 3.25,2.625c0,0 -1.12431,-2.50019 -2.69531,-4.49219c1.196,-0.383 2.66602,-0.58203 2.66602,-0.58203l-0.91016,-1.26172c-1.498,-2.077 -3.50689,-3.1252 -4.46289,-3.5332c-0.332,-1.266 -1.33469,-4.51623 -3.42969,-7.24023c-1.199,-1.559 -2.47487,-2.49131 -4.54688,-3.32031c-1.227,-0.49 -2.70238,-0.54845 -3.35938,-0.56445c-0.575,-0.316 -1.85272,-1.00586 -3.13672,-1.00586zM7.1875,5c0,0 -0.4375,0 -0.9375,0.125l1.375,1.87305c0.375,-0.498 0.375,-1.08008 0.375,-1.08008c0,0 -0.2495,-0.66797 -0.8125,-0.91797z"></path></g></g></svg>